<?xml version="1.0" encoding="UTF-8"?>
<svg id="_レイヤー_1" data-name="レイヤー_1" xmlns="http://www.w3.org/2000/svg" version="1.1" viewBox="0 0 2301 325.9">
  <!-- Generator: Adobe Illustrator 29.8.2, SVG Export Plug-In . SVG Version: 2.1.1 Build 3)  -->
  <defs>
    <style>
      .st0 {
        fill: #0f1115;
      }

      .st1 {
        fill: #e63946;
      }
    </style>
  </defs>
  <g>
    <polygon class="st1" points="244.2 40.8 244.2 90.1 175.4 90.1 175.4 286.9 122.9 286.9 122.9 90.1 41.7 90.1 41.7 40.8 244.2 40.8"/>
    <polygon class="st1" points="244.2 286.9 192.2 286.9 192.2 105.6 244.2 105.9 244.2 286.9"/>
    <path class="st1" d="M382.8,170.5c-2,45.2-28.3,87.3-69.9,105.8-16,7.1-33.8,10.9-51.4,10.6v-49.3c37.6,1.1,65.6-31.2,68-67.1h53.3Z"/>
    <path class="st1" d="M382.8,157.2h-53.3c-2.5-36.3-30.2-67.7-68-67.1v-49.3c24.6-.1,49.6,7,69.9,21,31,21.4,49.6,57.9,51.4,95.4Z"/>
  </g>
  <g>
    <path class="st0" d="M515,246.3V111.5h-47.4v-27.9h125.5v27.9h-47.4v134.8h-30.7Z"/>
    <path class="st0" d="M670.7,249.5c-20.4,0-36.7-5.6-48.8-16.8-12.1-11.2-18.1-27.3-18.1-48.2v-39c0-20.9,6-37,18.1-48.2,12.1-11.2,28.3-16.8,48.8-16.8s36.7,5.6,48.8,16.8c12.1,11.2,18.1,27.3,18.1,48.2v39c0,20.9-6,37-18.1,48.2-12.1,11.2-28.3,16.8-48.8,16.8ZM670.7,222.1c11.5,0,20.4-3.3,26.7-10,6.3-6.7,9.5-15.6,9.5-26.7v-40.9c0-11.2-3.2-20.1-9.5-26.7-6.4-6.7-15.3-10-26.7-10s-20.2,3.3-26.6,10c-6.4,6.7-9.6,15.6-9.6,26.7v40.9c0,11.2,3.2,20.1,9.6,26.7,6.4,6.7,15.3,10,26.6,10Z"/>
    <path class="st0" d="M764.5,246.3V83.7h30.7v64.6h4.2l52.7-64.6h39.3l-67.8,80.2,70.2,82.5h-40.4l-53.9-66h-4.2v66h-30.7Z"/>
    <path class="st0" d="M951.8,246.3v-56l-55.3-106.6h34.2l34.4,69.7h4.2l34.4-69.7h34.2l-55.3,106.6v56h-30.7Z"/>
    <path class="st0" d="M1111.7,249.5c-20.4,0-36.7-5.6-48.8-16.8-12.1-11.2-18.1-27.3-18.1-48.2v-39c0-20.9,6-37,18.1-48.2,12.1-11.2,28.3-16.8,48.8-16.8s36.7,5.6,48.8,16.8c12.1,11.2,18.1,27.3,18.1,48.2v39c0,20.9-6,37-18.1,48.2-12.1,11.2-28.3,16.8-48.8,16.8ZM1111.7,222.1c11.5,0,20.4-3.3,26.7-10,6.3-6.7,9.5-15.6,9.5-26.7v-40.9c0-11.2-3.2-20.1-9.5-26.7-6.4-6.7-15.3-10-26.7-10s-20.2,3.3-26.6,10c-6.4,6.7-9.6,15.6-9.6,26.7v40.9c0,11.2,3.2,20.1,9.6,26.7,6.4,6.7,15.3,10,26.6,10Z"/>
    <path class="st0" d="M1259.9,246.3v-27h21.4v-108.7h-21.4v-27h66.9c21.8,0,38.5,5.5,49.8,16.6,11.4,11.1,17.1,27.5,17.1,49.4v30.7c0,21.8-5.7,38.3-17.1,49.4-11.4,11.1-28,16.6-49.8,16.6h-66.9ZM1311.9,218.4h15.3c12.4,0,21.5-3.3,27.2-9.8,5.7-6.5,8.6-15.6,8.6-27.4v-32.5c0-11.9-2.9-21.1-8.6-27.5-5.7-6.4-14.8-9.6-27.2-9.6h-15.3v106.9Z"/>
    <path class="st0" d="M1419.3,246.3V83.7h104.6v27.9h-73.9v38.8h67.4v27.9h-67.4v40.2h75.3v27.9h-105.9Z"/>
    <path class="st0" d="M1609.8,249.5c-20.1,0-36.1-5.6-47.9-16.8-11.8-11.2-17.7-27.3-17.7-48.2v-39c0-20.9,5.9-37,17.7-48.2,11.8-11.2,27.7-16.8,47.9-16.8s35.4,5.5,46.4,16.4,16.4,25.9,16.4,45v1.4h-30.2v-2.3c0-9.6-2.7-17.5-8-23.7-5.3-6.2-13.5-9.3-24.5-9.3s-19.4,3.3-25.6,10c-6.2,6.7-9.3,15.7-9.3,27.2v40c0,11.3,3.1,20.3,9.3,27.1,6.2,6.7,14.7,10.1,25.6,10.1s19.2-3.1,24.5-9.4c5.3-6.3,8-14.1,8-23.6v-4.2h30.2v3.3c0,19.1-5.5,34-16.4,45s-26.4,16.4-46.4,16.4Z"/>
    <path class="st0" d="M1760.8,249.5c-20.4,0-36.7-5.6-48.8-16.8-12.1-11.2-18.1-27.3-18.1-48.2v-39c0-20.9,6-37,18.1-48.2,12.1-11.2,28.3-16.8,48.8-16.8s36.7,5.6,48.8,16.8c12.1,11.2,18.1,27.3,18.1,48.2v39c0,20.9-6,37-18.1,48.2-12.1,11.2-28.3,16.8-48.8,16.8ZM1760.8,222.1c11.5,0,20.4-3.3,26.7-10,6.3-6.7,9.5-15.6,9.5-26.7v-40.9c0-11.2-3.2-20.1-9.5-26.7-6.4-6.7-15.3-10-26.7-10s-20.2,3.3-26.6,10c-6.4,6.7-9.6,15.6-9.6,26.7v40.9c0,11.2,3.2,20.1,9.6,26.7,6.4,6.7,15.3,10,26.6,10Z"/>
    <path class="st0" d="M1844.9,246.3v-27h21.4v-108.7h-21.4v-27h66.9c21.8,0,38.5,5.5,49.8,16.6,11.4,11.1,17.1,27.5,17.1,49.4v30.7c0,21.8-5.7,38.3-17.1,49.4-11.4,11.1-28,16.6-49.8,16.6h-66.9ZM1896.9,218.4h15.3c12.4,0,21.5-3.3,27.2-9.8,5.7-6.5,8.6-15.6,8.6-27.4v-32.5c0-11.9-2.9-21.1-8.6-27.5-5.7-6.4-14.8-9.6-27.2-9.6h-15.3v106.9Z"/>
    <path class="st0" d="M2004.3,246.3V83.7h104.6v27.9h-73.9v38.8h67.4v27.9h-67.4v40.2h75.3v27.9h-105.9Z"/>
    <path class="st0" d="M2128.4,246.3v-27h21.4v-108.7h-21.4v-27h66.9c21.8,0,38.5,5.5,49.8,16.6,11.4,11.1,17.1,27.5,17.1,49.4v30.7c0,21.8-5.7,38.3-17.1,49.4-11.4,11.1-28,16.6-49.8,16.6h-66.9ZM2180.4,218.4h15.3c12.4,0,21.5-3.3,27.2-9.8,5.7-6.5,8.6-15.6,8.6-27.4v-32.5c0-11.9-2.9-21.1-8.6-27.5-5.7-6.4-14.8-9.6-27.2-9.6h-15.3v106.9Z"/>
  </g>
</svg>