<?xml version="1.0" encoding="UTF-8"?>
<svg id="_レイヤー_1" data-name="レイヤー_1" xmlns="http://www.w3.org/2000/svg" version="1.1" viewBox="0 0 1024 1024">
  <!-- Generator: Adobe Illustrator 29.8.2, SVG Export Plug-In . SVG Version: 2.1.1 Build 3)  -->
  <defs>
    <style>
      .st0 {
        fill: #111;
      }
    </style>
  </defs>
  <polygon class="st0" points="587.9 212.7 587.9 332.2 421 332.2 421 809.2 294 809.2 294 332.2 96.9 332.2 96.9 212.7 587.9 212.7"/>
  <polygon class="st0" points="587.9 809.2 462 809.2 462 369.9 587.9 370.4 587.9 809.2"/>
  <path class="st0" d="M923.9,527.1c-4.8,109.6-68.7,211.5-169.4,256.5-38.8,17.3-81.9,26.4-124.6,25.7v-119.5c91.1,2.7,158.9-75.5,164.7-162.6h129.2Z"/>
  <path class="st0" d="M923.9,494.8h-129.2c-6-87.9-73.1-164.2-164.7-162.6v-119.5c59.7-.3,120.3,17,169.4,50.8,75.2,51.9,120.3,140.3,124.6,231.3Z"/>
</svg>